<svg width="54" height="59" viewBox="0 0 54 59" fill="none" xmlns="http://www.w3.org/2000/svg">
<path d="M39.8359 80.6406C34.3932 80.6406 29.263 79.599 24.4453 77.5156C19.6536 75.4323 15.4219 72.5547 11.75 68.8828C8.07812 65.2109 5.20052 60.9792 3.11719 56.1875C1.03385 51.3698 -0.0078125 46.2396 -0.0078125 40.7969C-0.0078125 35.3542 1.03385 30.237 3.11719 25.4453C5.20052 20.6276 8.0651 16.3828 11.7109 12.7109C15.3828 9.03906 19.6146 6.16146 24.4062 4.07812C29.224 1.99479 34.3542 0.953125 39.7969 0.953125C45.2396 0.953125 50.3698 1.99479 55.1875 4.07812C60.0052 6.16146 64.25 9.03906 67.9219 12.7109C71.5938 16.3828 74.4714 20.6276 76.5547 25.4453C78.638 30.237 79.6797 35.3542 79.6797 40.7969C79.6797 46.2396 78.638 51.3698 76.5547 56.1875C74.4714 60.9792 71.5938 65.2109 67.9219 68.8828C64.25 72.5547 60.0052 75.4323 55.1875 77.5156C50.3958 79.599 45.2786 80.6406 39.8359 80.6406ZM39.8359 63.8047C40.3828 63.8047 40.8385 63.6354 41.2031 63.2969C41.5677 62.9323 41.75 62.4635 41.75 61.8906V59.0781C44.875 58.7656 47.5052 57.737 49.6406 55.9922C51.776 54.2214 52.8438 51.8125 52.8438 48.7656C52.8438 46.0312 51.9583 43.8307 50.1875 42.1641C48.4167 40.4974 45.7865 39.3516 42.2969 38.7266L41.75 38.6094V27.3984C43.1823 27.6589 44.3802 28.2057 45.3438 29.0391C46.3333 29.8724 47.0365 30.9661 47.4531 32.3203C47.8958 33.6484 48.7161 34.3125 49.9141 34.3125C50.6172 34.3125 51.1901 34.0911 51.6328 33.6484C52.0755 33.2057 52.2969 32.6328 52.2969 31.9297C52.2969 31.7214 52.2708 31.513 52.2188 31.3047C52.1927 31.0964 52.1536 30.888 52.1016 30.6797C51.5547 28.5182 50.3307 26.7344 48.4297 25.3281C46.5547 23.8958 44.3281 23.0365 41.75 22.75V19.9766C41.75 19.4036 41.5677 18.9479 41.2031 18.6094C40.8385 18.2448 40.3828 18.0625 39.8359 18.0625C39.2891 18.0625 38.8333 18.2448 38.4688 18.6094C38.1042 18.9479 37.9219 19.4036 37.9219 19.9766V22.75C34.875 23.0885 32.362 24.1562 30.3828 25.9531C28.4297 27.724 27.4531 29.9896 27.4531 32.75C27.4531 35.3021 28.3125 37.3724 30.0312 38.9609C31.75 40.5234 34.2891 41.7083 37.6484 42.5156L37.9219 42.5938V54.4688C36.125 54.2083 34.6927 53.6094 33.625 52.6719C32.5833 51.7344 31.8932 50.6016 31.5547 49.2734C31.3203 48.5703 30.9948 48.0625 30.5781 47.75C30.1615 47.4115 29.6536 47.2422 29.0547 47.2422C28.3776 47.2422 27.8177 47.4635 27.375 47.9062C26.9323 48.349 26.7109 48.9219 26.7109 49.625C26.7109 49.8333 26.724 50.0417 26.75 50.25C26.8021 50.4583 26.8542 50.6667 26.9062 50.875C27.4792 53.2188 28.7812 55.0938 30.8125 56.5C32.8438 57.9062 35.2135 58.7396 37.9219 59V61.8906C37.9219 62.4635 38.1042 62.9323 38.4688 63.2969C38.8333 63.6354 39.2891 63.8047 39.8359 63.8047ZM37.9219 37.5938L37.6484 37.5156C35.8516 36.9688 34.5365 36.2917 33.7031 35.4844C32.8698 34.6771 32.4531 33.6745 32.4531 32.4766C32.4531 31.2526 32.9349 30.1719 33.8984 29.2344C34.888 28.2969 36.2292 27.6849 37.9219 27.3984V37.5938ZM41.75 43.5312L42.6094 43.7656C44.5625 44.2865 45.9167 44.9766 46.6719 45.8359C47.4531 46.6953 47.8438 47.763 47.8438 49.0391C47.8438 50.4453 47.3359 51.6432 46.3203 52.6328C45.3307 53.6224 43.8073 54.2344 41.75 54.4688V43.5312Z" fill="#FF7B31" fill-opacity="0.52"/>
</svg>
