<svg width="74" height="65" viewBox="0 0 74 65" fill="none" xmlns="http://www.w3.org/2000/svg">
<path d="M48.3359 60.1719C45.8359 60.1719 43.5833 59.7943 41.5781 59.0391C39.5729 58.2578 37.9323 57.2161 36.6562 55.9141C35.3802 54.612 34.5859 53.1667 34.2734 51.5781C34.0651 50.4062 34.1953 49.4557 34.6641 48.7266C35.1589 47.9974 35.901 47.6328 36.8906 47.6328C37.4375 47.6328 37.9583 47.7891 38.4531 48.1016C38.9479 48.4141 39.3385 48.9089 39.625 49.5859C40.3281 51.4609 41.3828 52.8411 42.7891 53.7266C44.2214 54.5859 46.0703 55.0156 48.3359 55.0156C50.862 55.0156 52.8802 54.5208 54.3906 53.5312C55.901 52.5156 56.6562 51.1615 56.6562 49.4688C56.6562 48.0365 56.1875 46.9167 55.25 46.1094C54.3385 45.3021 52.8021 44.638 50.6406 44.1172L45.0547 42.7891C41.4609 41.9557 38.7917 40.7057 37.0469 39.0391C35.3281 37.3464 34.4688 35.1589 34.4688 32.4766C34.4688 30.3411 35.0417 28.4531 36.1875 26.8125C37.3594 25.1719 38.9609 23.8828 40.9922 22.9453C43.0495 22.0078 45.4062 21.5391 48.0625 21.5391C50.5365 21.5391 52.6979 21.9688 54.5469 22.8281C56.3958 23.6615 57.8932 24.7292 59.0391 26.0312C60.1849 27.3333 60.9401 28.6745 61.3047 30.0547C61.6432 31.2266 61.5651 32.2161 61.0703 33.0234C60.5755 33.8047 59.8203 34.1953 58.8047 34.1953C58.2578 34.1953 57.737 34.0391 57.2422 33.7266C56.7474 33.388 56.3438 32.8802 56.0312 32.2031C55.3281 30.3281 54.3255 28.9479 53.0234 28.0625C51.7474 27.151 50.0938 26.6953 48.0625 26.6953C45.7969 26.6953 43.9609 27.2161 42.5547 28.2578C41.1484 29.2734 40.4453 30.6016 40.4453 32.2422C40.4453 33.5443 40.9401 34.612 41.9297 35.4453C42.9453 36.2526 44.5339 36.9297 46.6953 37.4766L52.2812 38.8438C56.0052 39.7552 58.6745 41.0052 60.2891 42.5938C61.9297 44.1562 62.75 46.3047 62.75 49.0391C62.75 51.2005 62.125 53.1276 60.875 54.8203C59.651 56.487 57.9453 57.8021 55.7578 58.7656C53.5964 59.7031 51.1224 60.1719 48.3359 60.1719ZM46.0703 64V17.6328C46.0703 16.9818 46.2917 16.4219 46.7344 15.9531C47.2031 15.4844 47.763 15.25 48.4141 15.25C49.0651 15.25 49.625 15.4844 50.0938 15.9531C50.5625 16.4219 50.7969 16.9818 50.7969 17.6328V64C50.7969 64.651 50.5625 65.2109 50.0938 65.6797C49.625 66.1484 49.0651 66.3828 48.4141 66.3828C47.763 66.3828 47.2031 66.1484 46.7344 65.6797C46.2917 65.2109 46.0703 64.651 46.0703 64ZM48.4141 80.6406C44.0391 80.6406 39.8594 79.9375 35.875 78.5312C31.8906 77.151 28.2318 75.1979 24.8984 72.6719C21.5651 70.1719 18.6615 67.2682 16.1875 63.9609C15.5104 63.1016 15.25 62.2031 15.4062 61.2656C15.5885 60.3281 16.0703 59.612 16.8516 59.1172C17.6849 58.6224 18.5182 58.4922 19.3516 58.7266C20.2109 58.9349 20.9401 59.4427 21.5391 60.25C23.5182 63.0104 25.888 65.4193 28.6484 67.4766C31.4349 69.5339 34.4948 71.1224 37.8281 72.2422C41.1615 73.388 44.6901 73.974 48.4141 74C53.0234 74.026 57.3333 73.1797 61.3438 71.4609C65.3542 69.7422 68.8698 67.3724 71.8906 64.3516C74.9375 61.3047 77.3203 57.776 79.0391 53.7656C80.7578 49.7292 81.6172 45.4062 81.6172 40.7969C81.6172 36.1875 80.7578 31.8776 79.0391 27.8672C77.3203 23.8568 74.9375 20.3411 71.8906 17.3203C68.8698 14.2734 65.3542 11.9036 61.3438 10.2109C57.3333 8.49219 53.0234 7.63281 48.4141 7.63281C43.8047 7.63281 39.4948 8.49219 35.4844 10.2109C31.474 11.9036 27.9453 14.2604 24.8984 17.2812C21.8516 20.3021 19.4688 23.8177 17.75 27.8281C16.0573 31.8385 15.2109 36.1484 15.2109 40.7578H8.57031C8.57031 35.3151 9.61198 30.1979 11.6953 25.4062C13.7786 20.5885 16.6562 16.3568 20.3281 12.7109C24 9.03906 28.2318 6.16146 33.0234 4.07812C37.8411 1.99479 42.9714 0.953125 48.4141 0.953125C53.8568 0.953125 58.974 1.99479 63.7656 4.07812C68.5833 6.16146 72.8281 9.03906 76.5 12.7109C80.1719 16.3828 83.0495 20.6276 85.1328 25.4453C87.2161 30.237 88.2578 35.3542 88.2578 40.7969C88.2578 46.2396 87.2161 51.3698 85.1328 56.1875C83.0495 60.9792 80.1719 65.2109 76.5 68.8828C72.8281 72.5547 68.5833 75.4323 63.7656 77.5156C58.974 79.599 53.8568 80.6406 48.4141 80.6406ZM3.76562 33.2578H21.6953C22.6068 33.2578 23.2969 33.4531 23.7656 33.8438C24.2344 34.2083 24.4557 34.7031 24.4297 35.3281C24.4297 35.9271 24.1823 36.5911 23.6875 37.3203L14.9375 49.7812C14.3125 50.6667 13.5833 51.1224 12.75 51.1484C11.9167 51.1484 11.1745 50.6927 10.5234 49.7812L1.77344 37.3594C1.27865 36.6302 1.01823 35.9531 0.992188 35.3281C0.966146 34.7031 1.1875 34.2083 1.65625 33.8438C2.125 33.4531 2.82812 33.2578 3.76562 33.2578Z" fill="#FF7B31" fill-opacity="0.52"/>
</svg>
