<svg width="57" height="57" viewBox="0 0 57 57" fill="none" xmlns="http://www.w3.org/2000/svg">
<path d="M-35.0391 33.3281V37.9766H4.29688C3.69792 39.2266 2.79948 40.5677 1.60156 42C0.403646 43.4323 -0.963542 44.8125 -2.5 46.1406C-4.03646 47.4427 -5.61198 48.5495 -7.22656 49.4609C-8.84115 50.3464 -10.3776 50.8672 -11.8359 51.0234C-12.9036 51.1276 -13.737 51.5052 -14.3359 52.1562C-14.9089 52.7812 -15.1953 53.6016 -15.1953 54.6172C-15.1953 55.5286 -14.8568 56.3359 -14.1797 57.0391C-13.4766 57.7422 -12.526 58.0156 -11.3281 57.8594C-9.73958 57.625 -7.96875 57.013 -6.01562 56.0234C-4.0625 55.0339 -2.14844 53.7708 -0.273438 52.2344C1.6276 50.6719 3.32031 48.9271 4.80469 47C6.28906 45.0469 7.36979 43.0026 8.04688 40.8672H8.32031V67.1953H13.4375V40.8672H13.75C14.4271 43.0026 15.5078 45.0469 16.9922 47C18.4766 48.9271 20.1562 50.6719 22.0312 52.2344C23.9323 53.7708 25.8464 55.0339 27.7734 56.0234C29.7266 57.013 31.5104 57.625 33.125 57.8594C34.3229 58.0156 35.2604 57.7422 35.9375 57.0391C36.6406 56.3359 36.9922 55.5286 36.9922 54.6172C36.9922 53.6016 36.6927 52.7812 36.0938 52.1562C35.5208 51.5052 34.6875 51.1276 33.5938 51.0234C32.1615 50.8672 30.638 50.3464 29.0234 49.4609C27.4089 48.5755 25.8333 47.4818 24.2969 46.1797C22.7604 44.8516 21.3932 43.4714 20.1953 42.0391C18.9974 40.5807 18.099 39.2266 17.5 37.9766H56.7578V33.3281H27.6172C29.388 32.5469 30.9375 31.5573 32.2656 30.3594C33.5938 29.1615 34.6224 27.8073 35.3516 26.2969C36.1068 24.7865 36.4844 23.1589 36.4844 21.4141C36.4844 19.3828 36.0286 17.5729 35.1172 15.9844C34.2057 14.3958 32.9557 13.1458 31.3672 12.2344C29.8047 11.3229 28.0208 10.8672 26.0156 10.8672C24.2969 10.8672 22.6432 11.2188 21.0547 11.9219C19.4922 12.599 18.0599 13.5755 16.7578 14.8516C15.4557 16.1276 14.349 17.651 13.4375 19.4219V0.476562H8.32031V19.4219C7.4349 17.651 6.34115 16.1276 5.03906 14.8516C3.73698 13.5755 2.29167 12.599 0.703125 11.9219C-0.859375 11.2188 -2.51302 10.8672 -4.25781 10.8672C-6.26302 10.8672 -8.0599 11.3229 -9.64844 12.2344C-11.2109 13.1458 -12.4479 14.3958 -13.3594 15.9844C-14.2708 17.5729 -14.7266 19.3828 -14.7266 21.4141C-14.7266 23.1589 -14.349 24.7865 -13.5938 26.2969C-12.8385 27.8073 -11.7969 29.1615 -10.4688 30.3594C-9.14062 31.5573 -7.60417 32.5469 -5.85938 33.3281H-35.0391ZM6.32812 32.7031C4.29688 32.7031 2.36979 32.3906 0.546875 31.7656C-1.27604 31.1406 -2.89062 30.3073 -4.29688 29.2656C-5.70312 28.1979 -6.8099 27.026 -7.61719 25.75C-8.42448 24.474 -8.82812 23.1849 -8.82812 21.8828C-8.82812 20.3203 -8.38542 19.0964 -7.5 18.2109C-6.61458 17.2995 -5.42969 16.8438 -3.94531 16.8438C-2.38281 16.8438 -0.911458 17.2344 0.46875 18.0156C1.84896 18.7969 3.07292 19.8776 4.14062 21.2578C5.20833 22.612 6.04167 24.1745 6.64062 25.9453C7.26562 27.6901 7.57812 29.5521 7.57812 31.5312V32.7031H6.32812ZM15.4297 32.7031H14.1797V31.5312C14.1797 29.5521 14.4922 27.6901 15.1172 25.9453C15.7422 24.1745 16.5885 22.612 17.6562 21.2578C18.724 19.8776 19.9479 18.7969 21.3281 18.0156C22.7083 17.2344 24.1667 16.8438 25.7031 16.8438C27.2135 16.8438 28.3984 17.2995 29.2578 18.2109C30.1432 19.0964 30.5859 20.3203 30.5859 21.8828C30.5859 23.1849 30.1823 24.474 29.375 25.75C28.5938 27.026 27.5 28.1979 26.0938 29.2656C24.6875 30.3073 23.0729 31.1406 21.25 31.7656C19.4271 32.3906 17.487 32.7031 15.4297 32.7031ZM-22.7734 67.1953C-26.862 67.1953 -29.9349 66.1797 -31.9922 64.1484C-34.0234 62.1432 -35.0391 59.1354 -35.0391 55.125V12.5859C-35.0391 8.54948 -34.0234 5.52865 -31.9922 3.52344C-29.9349 1.49219 -26.862 0.476562 -22.7734 0.476562H44.4922C48.5807 0.476562 51.6406 1.49219 53.6719 3.52344C55.7292 5.55469 56.7578 8.57552 56.7578 12.5859V55.125C56.7578 59.1354 55.7292 62.1432 53.6719 64.1484C51.6406 66.1797 48.5807 67.1953 44.4922 67.1953H-22.7734Z" fill="#FF7B31" fill-opacity="0.52"/>
</svg>
