<svg width="20" height="21" viewBox="0 0 20 21" fill="none" xmlns="http://www.w3.org/2000/svg">
<path d="M1.79688 18.2539V12.2676H9.0625V20.8223H4.45312C3.61979 20.8223 2.96875 20.6009 2.5 20.1582C2.03125 19.722 1.79688 19.0872 1.79688 18.2539ZM10.9375 20.8223V12.2676H18.2031V18.2539C18.2031 19.0872 17.9688 19.722 17.5 20.1582C17.0312 20.6009 16.3802 20.8223 15.5469 20.8223H10.9375ZM0.449219 9.48438V7.32617C0.449219 6.7207 0.61849 6.27474 0.957031 5.98828C1.30208 5.69531 1.76432 5.54883 2.34375 5.54883H4.25781C3.97786 5.2819 3.75651 4.96615 3.59375 4.60156C3.43099 4.23047 3.34961 3.83008 3.34961 3.40039C3.34961 2.74935 3.50586 2.17318 3.81836 1.67188C4.13086 1.16406 4.55078 0.770182 5.07812 0.490234C5.60547 0.203776 6.19466 0.0605469 6.8457 0.0605469C7.33398 0.0605469 7.78646 0.148438 8.20312 0.324219C8.61979 0.5 8.98438 0.757161 9.29688 1.0957C9.60938 1.42773 9.84375 1.83464 10 2.31641C10.1628 1.83464 10.3971 1.42773 10.7031 1.0957C11.0156 0.757161 11.3802 0.5 11.7969 0.324219C12.2201 0.148438 12.6725 0.0605469 13.1543 0.0605469C13.7988 0.0605469 14.3848 0.203776 14.9121 0.490234C15.4395 0.770182 15.8594 1.16406 16.1719 1.67188C16.4844 2.17318 16.6406 2.74935 16.6406 3.40039C16.6406 3.83008 16.5592 4.23047 16.3965 4.60156C16.2402 4.96615 16.0221 5.2819 15.7422 5.54883H17.6562C18.2617 5.54883 18.7272 5.69531 19.0527 5.98828C19.3848 6.27474 19.5508 6.7207 19.5508 7.32617V9.48438C19.5508 10.0247 19.401 10.4251 19.1016 10.6855C18.8021 10.9395 18.3822 11.0664 17.8418 11.0664H10.9375V5.54883H12.3926C13.1413 5.54883 13.7207 5.35677 14.1309 4.97266C14.541 4.58203 14.7461 4.11979 14.7461 3.58594C14.7461 3.0651 14.5833 2.6582 14.2578 2.36523C13.9323 2.06576 13.5026 1.91602 12.9688 1.91602C12.5977 1.91602 12.2559 2.01042 11.9434 2.19922C11.6374 2.38802 11.3932 2.65495 11.2109 3C11.0286 3.33854 10.9375 3.73568 10.9375 4.19141V5.54883H9.0625V4.19141C9.0625 3.73568 8.9681 3.33854 8.7793 3C8.59701 2.65495 8.35286 2.38802 8.04688 2.19922C7.74089 2.01042 7.39909 1.91602 7.02148 1.91602C6.50065 1.91602 6.07422 2.06576 5.74219 2.36523C5.41016 2.6582 5.24414 3.0651 5.24414 3.58594C5.24414 4.11979 5.44922 4.58203 5.85938 4.97266C6.27604 5.35677 6.85547 5.54883 7.59766 5.54883H9.0625V11.0664H2.1582C1.61784 11.0664 1.19792 10.9395 0.898438 10.6855C0.598958 10.4251 0.449219 10.0247 0.449219 9.48438Z" fill="#FE9257"/>
</svg>
