<svg width="54" height="60" viewBox="0 0 54 60" fill="none" xmlns="http://www.w3.org/2000/svg">
<path d="M39.8359 79.6797C34.3932 79.6797 29.263 78.638 24.4453 76.5547C19.6536 74.4714 15.4219 71.5938 11.75 67.9219C8.07812 64.25 5.20052 60.0182 3.11719 55.2266C1.03385 50.4089 -0.0078125 45.2786 -0.0078125 39.8359C-0.0078125 34.3932 1.03385 29.276 3.11719 24.4844C5.20052 19.6667 8.0651 15.4219 11.7109 11.75C15.3828 8.07812 19.6146 5.20052 24.4062 3.11719C29.224 1.03385 34.3542 -0.0078125 39.7969 -0.0078125C45.2396 -0.0078125 50.3698 1.03385 55.1875 3.11719C60.0052 5.20052 64.25 8.07812 67.9219 11.75C71.5938 15.4219 74.4714 19.6667 76.5547 24.4844C78.638 29.276 79.6797 34.3932 79.6797 39.8359C79.6797 45.2786 78.638 50.4089 76.5547 55.2266C74.4714 60.0182 71.5938 64.25 67.9219 67.9219C64.25 71.5938 60.0052 74.4714 55.1875 76.5547C50.3958 78.638 45.2786 79.6797 39.8359 79.6797ZM33.1172 53.4688H54.9922C55.6172 53.4688 56.112 53.2865 56.4766 52.9219C56.8672 52.5312 57.0625 51.9974 57.0625 51.3203C57.0625 50.6953 56.8672 50.2005 56.4766 49.8359C56.112 49.4453 55.6172 49.25 54.9922 49.25H33.1562C32.5573 49.25 32.0625 49.0807 31.6719 48.7422C31.3073 48.3776 31.0859 47.8828 31.0078 47.2578L30.8125 45.7344H55.9297C57.4401 45.7344 58.5859 45.3177 59.3672 44.4844C60.1745 43.651 60.6823 42.4922 60.8906 41.0078L62.5312 30.0703C62.5573 29.9661 62.5703 29.8359 62.5703 29.6797C62.5964 29.5234 62.6094 29.4193 62.6094 29.3672C62.6094 28.8464 62.4401 28.4427 62.1016 28.1562C61.7891 27.8438 61.3464 27.6875 60.7734 27.6875H28.1562L27.8047 24.9531C27.7005 24.0938 27.3229 23.4036 26.6719 22.8828C26.0208 22.3359 25.2396 22.0625 24.3281 22.0625H17.4531C16.8281 22.0625 16.3203 22.2708 15.9297 22.6875C15.5391 23.0781 15.3438 23.5859 15.3438 24.2109C15.3438 24.8359 15.5391 25.3568 15.9297 25.7734C16.3203 26.1641 16.8281 26.3594 17.4531 26.3594H23.7031L26.8672 48.5859C27.1276 50.2005 27.7656 51.4245 28.7812 52.2578C29.8229 53.0651 31.2682 53.4688 33.1172 53.4688ZM33.7422 63.3516C34.7318 63.3516 35.5781 63.013 36.2812 62.3359C37.0104 61.6328 37.375 60.7734 37.375 59.7578C37.375 58.7422 37.0104 57.8828 36.2812 57.1797C35.5781 56.4766 34.7318 56.125 33.7422 56.125C32.7266 56.125 31.8672 56.4766 31.1641 57.1797C30.487 57.8828 30.1484 58.7422 30.1484 59.7578C30.1484 60.7734 30.487 61.6328 31.1641 62.3359C31.8672 63.013 32.7266 63.3516 33.7422 63.3516ZM51.7109 63.3516C52.7526 63.3516 53.612 63.013 54.2891 62.3359C54.9922 61.6328 55.3438 60.7734 55.3438 59.7578C55.3438 58.7422 54.9922 57.8828 54.2891 57.1797C53.612 56.4766 52.7526 56.125 51.7109 56.125C50.7214 56.125 49.862 56.4766 49.1328 57.1797C48.4297 57.8828 48.0781 58.7422 48.0781 59.7578C48.0781 60.7734 48.4297 61.6328 49.1328 62.3359C49.862 63.013 50.7214 63.3516 51.7109 63.3516Z" fill="#FF7B31" fill-opacity="0.52"/>
</svg>
