<svg width="54" height="58" viewBox="0 0 54 58" fill="none" xmlns="http://www.w3.org/2000/svg">
<path d="M39.8359 79.6797C34.3932 79.6797 29.263 78.638 24.4453 76.5547C19.6536 74.4714 15.4219 71.5938 11.75 67.9219C8.07812 64.25 5.20052 60.0182 3.11719 55.2266C1.03385 50.4089 -0.0078125 45.2786 -0.0078125 39.8359C-0.0078125 34.3932 1.03385 29.276 3.11719 24.4844C5.20052 19.6667 8.0651 15.4219 11.7109 11.75C15.3828 8.07812 19.6146 5.20052 24.4062 3.11719C29.224 1.03385 34.3542 -0.0078125 39.7969 -0.0078125C45.2396 -0.0078125 50.3698 1.03385 55.1875 3.11719C60.0052 5.20052 64.25 8.07812 67.9219 11.75C71.5938 15.4219 74.4714 19.6667 76.5547 24.4844C78.638 29.276 79.6797 34.3932 79.6797 39.8359C79.6797 45.2786 78.638 50.4089 76.5547 55.2266C74.4714 60.0182 71.5938 64.25 67.9219 67.9219C64.25 71.5938 60.0052 74.4714 55.1875 76.5547C50.3958 78.638 45.2786 79.6797 39.8359 79.6797ZM25.0703 59.7578H54.5234C56.7891 59.7578 58.4818 59.1979 59.6016 58.0781C60.7474 56.9583 61.3203 55.2786 61.3203 53.0391V26.6719C61.3203 24.4323 60.7474 22.7526 59.6016 21.6328C58.4818 20.513 56.7891 19.9531 54.5234 19.9531H25.0703C22.8047 19.9531 21.099 20.513 19.9531 21.6328C18.8333 22.7526 18.2734 24.4323 18.2734 26.6719V53.0391C18.2734 55.2786 18.8333 56.9583 19.9531 58.0781C21.099 59.1979 22.8047 59.7578 25.0703 59.7578ZM24.7578 56.0859C23.8464 56.0859 23.1562 55.8516 22.6875 55.3828C22.2188 54.9141 21.9844 54.2109 21.9844 53.2734V32.8438C21.9844 30.8385 22.974 29.8359 24.9531 29.8359H54.6016C56.6068 29.8359 57.6094 30.8385 57.6094 32.8438V53.2734C57.6094 54.2109 57.362 54.9141 56.8672 55.3828C56.3984 55.8516 55.7083 56.0859 54.7969 56.0859H24.7578ZM35.4609 37.9609H36.9453C37.4141 37.9609 37.7396 37.8828 37.9219 37.7266C38.1042 37.5443 38.1953 37.2318 38.1953 36.7891V35.2266C38.1953 34.7839 38.1042 34.4714 37.9219 34.2891C37.7396 34.1068 37.4141 34.0156 36.9453 34.0156H35.4609C34.9922 34.0156 34.6667 34.1068 34.4844 34.2891C34.3281 34.4714 34.25 34.7839 34.25 35.2266V36.7891C34.25 37.2318 34.3281 37.5443 34.4844 37.7266C34.6667 37.8828 34.9922 37.9609 35.4609 37.9609ZM42.6484 37.9609H44.1328C44.6016 37.9609 44.9141 37.8828 45.0703 37.7266C45.2526 37.5443 45.3438 37.2318 45.3438 36.7891V35.2266C45.3438 34.7839 45.2526 34.4714 45.0703 34.2891C44.9141 34.1068 44.6016 34.0156 44.1328 34.0156H42.6484C42.1797 34.0156 41.8542 34.1068 41.6719 34.2891C41.4896 34.4714 41.3984 34.7839 41.3984 35.2266V36.7891C41.3984 37.2318 41.4896 37.5443 41.6719 37.7266C41.8542 37.8828 42.1797 37.9609 42.6484 37.9609ZM49.8359 37.9609H51.2812C52.1146 37.9609 52.5312 37.5703 52.5312 36.7891V35.2266C52.5312 34.4193 52.1146 34.0156 51.2812 34.0156H49.8359C49.0026 34.0156 48.5859 34.4193 48.5859 35.2266V36.7891C48.5859 37.2318 48.6641 37.5443 48.8203 37.7266C49.0026 37.8828 49.3411 37.9609 49.8359 37.9609ZM28.3125 44.9922H29.7578C30.2526 44.9922 30.5781 44.9141 30.7344 44.7578C30.9167 44.6016 31.0078 44.2891 31.0078 43.8203V42.2969C31.0078 41.4896 30.5911 41.0859 29.7578 41.0859H28.3125C27.4792 41.0859 27.0625 41.4896 27.0625 42.2969V43.8203C27.0625 44.6016 27.4792 44.9922 28.3125 44.9922ZM35.4609 44.9922H36.9453C37.4141 44.9922 37.7396 44.9141 37.9219 44.7578C38.1042 44.6016 38.1953 44.2891 38.1953 43.8203V42.2969C38.1953 41.8281 38.1042 41.5156 37.9219 41.3594C37.7396 41.1771 37.4141 41.0859 36.9453 41.0859H35.4609C34.9922 41.0859 34.6667 41.1771 34.4844 41.3594C34.3281 41.5156 34.25 41.8281 34.25 42.2969V43.8203C34.25 44.2891 34.3281 44.6016 34.4844 44.7578C34.6667 44.9141 34.9922 44.9922 35.4609 44.9922ZM42.6484 44.9922H44.1328C44.6016 44.9922 44.9141 44.9141 45.0703 44.7578C45.2526 44.6016 45.3438 44.2891 45.3438 43.8203V42.2969C45.3438 41.8281 45.2526 41.5156 45.0703 41.3594C44.9141 41.1771 44.6016 41.0859 44.1328 41.0859H42.6484C42.1797 41.0859 41.8542 41.1771 41.6719 41.3594C41.4896 41.5156 41.3984 41.8281 41.3984 42.2969V43.8203C41.3984 44.2891 41.4896 44.6016 41.6719 44.7578C41.8542 44.9141 42.1797 44.9922 42.6484 44.9922ZM49.8359 44.9922H51.2812C52.1146 44.9922 52.5312 44.6016 52.5312 43.8203V42.2969C52.5312 41.4896 52.1146 41.0859 51.2812 41.0859H49.8359C49.0026 41.0859 48.5859 41.4896 48.5859 42.2969V43.8203C48.5859 44.2891 48.6641 44.6016 48.8203 44.7578C49.0026 44.9141 49.3411 44.9922 49.8359 44.9922ZM28.3125 52.0625H29.7578C30.5911 52.0625 31.0078 51.6458 31.0078 50.8125V49.3281C31.0078 48.8594 30.9167 48.5469 30.7344 48.3906C30.5781 48.2344 30.2526 48.1562 29.7578 48.1562H28.3125C27.4792 48.1562 27.0625 48.5469 27.0625 49.3281V50.8125C27.0625 51.6458 27.4792 52.0625 28.3125 52.0625ZM35.4609 52.0625H36.9453C37.4141 52.0625 37.7396 51.9714 37.9219 51.7891C38.1042 51.6068 38.1953 51.2812 38.1953 50.8125V49.3281C38.1953 48.8594 38.1042 48.5469 37.9219 48.3906C37.7396 48.2344 37.4141 48.1562 36.9453 48.1562H35.4609C34.9922 48.1562 34.6667 48.2344 34.4844 48.3906C34.3281 48.5469 34.25 48.8594 34.25 49.3281V50.8125C34.25 51.2812 34.3281 51.6068 34.4844 51.7891C34.6667 51.9714 34.9922 52.0625 35.4609 52.0625ZM42.6484 52.0625H44.1328C44.6016 52.0625 44.9141 51.9714 45.0703 51.7891C45.2526 51.6068 45.3438 51.2812 45.3438 50.8125V49.3281C45.3438 48.8594 45.2526 48.5469 45.0703 48.3906C44.9141 48.2344 44.6016 48.1562 44.1328 48.1562H42.6484C42.1797 48.1562 41.8542 48.2344 41.6719 48.3906C41.4896 48.5469 41.3984 48.8594 41.3984 49.3281V50.8125C41.3984 51.2812 41.4896 51.6068 41.6719 51.7891C41.8542 51.9714 42.1797 52.0625 42.6484 52.0625Z" fill="#FF7B31" fill-opacity="0.52"/>
</svg>
