<svg width="51" height="62" viewBox="0 0 51 62" fill="none" xmlns="http://www.w3.org/2000/svg">
<path d="M6.54688 72.625V47.4688H35.2578V82.5469H16.8984C13.6432 82.5469 11.1042 81.7005 9.28125 80.0078C7.45833 78.3411 6.54688 75.8802 6.54688 72.625ZM41.6641 82.5469V47.4688H70.4141V72.625C70.4141 75.8802 69.5026 78.3411 67.6797 80.0078C65.8568 81.7005 63.3177 82.5469 60.0625 82.5469H41.6641ZM0.960938 37.4688V27.9766C0.960938 25.8932 1.54688 24.4089 2.71875 23.5234C3.91667 22.612 5.51823 22.1562 7.52344 22.1562H16.5859C15.4401 21.0885 14.5417 19.8385 13.8906 18.4062C13.2396 16.9479 12.9141 15.3594 12.9141 13.6406C12.9141 11.1146 13.513 8.875 14.7109 6.92188C15.9349 4.96875 17.5625 3.44531 19.5938 2.35156C21.651 1.23177 23.9427 0.671875 26.4688 0.671875C29.2292 0.671875 31.6641 1.38802 33.7734 2.82031C35.9089 4.2526 37.4714 6.28385 38.4609 8.91406C39.4505 6.28385 41.013 4.2526 43.1484 2.82031C45.2839 1.38802 47.7188 0.671875 50.4531 0.671875C52.9792 0.671875 55.2578 1.23177 57.2891 2.35156C59.3464 3.44531 60.974 4.96875 62.1719 6.92188C63.3958 8.875 64.0078 11.1146 64.0078 13.6406C64.0078 15.3594 63.6823 16.9479 63.0312 18.4062C62.4062 19.8385 61.5208 21.0885 60.375 22.1562H69.4375C71.5469 22.1562 73.1615 22.612 74.2812 23.5234C75.4271 24.4089 76 25.8932 76 27.9766V37.4688C76 39.5521 75.4271 41.0495 74.2812 41.9609C73.1615 42.8464 71.5469 43.2891 69.4375 43.2891H41.6641V22.1562H47.7578C50.8307 22.1562 53.2135 21.3359 54.9062 19.6953C56.625 18.0547 57.4844 16.1536 57.4844 13.9922C57.4844 11.8307 56.7812 10.1641 55.375 8.99219C53.9948 7.79427 52.224 7.19531 50.0625 7.19531C47.7448 7.19531 45.7656 8.02865 44.125 9.69531C42.4844 11.3359 41.6641 13.6016 41.6641 16.4922V22.1562H35.2578V16.4922C35.2578 13.6016 34.4375 11.3359 32.7969 9.69531C31.1823 8.02865 29.2031 7.19531 26.8594 7.19531C24.724 7.19531 22.9531 7.79427 21.5469 8.99219C20.1406 10.1641 19.4375 11.8307 19.4375 13.9922C19.4375 16.1536 20.2839 18.0547 21.9766 19.6953C23.6953 21.3359 26.0911 22.1562 29.1641 22.1562H35.2578V43.2891H7.52344C5.41406 43.2891 3.78646 42.8464 2.64062 41.9609C1.52083 41.0495 0.960938 39.5521 0.960938 37.4688Z" fill="#FF7B31" fill-opacity="0.52"/>
</svg>
